<?xml version="1.0" standalone="no"?>
<!DOCTYPE svg PUBLIC "-//W3C//DTD SVG 20010904//EN"
 "http://www.w3.org/TR/2001/REC-SVG-20010904/DTD/svg10.dtd">
<svg version="1.0" xmlns="http://www.w3.org/2000/svg"
 width="405.000000pt" height="405.000000pt" viewBox="0 0 405.000000 405.000000"
 preserveAspectRatio="xMidYMid meet">
<metadata>
Created by potrace 1.11, written by Peter Selinger 2001-2013
</metadata>
<g transform="translate(0.000000,405.000000) scale(0.100000,-0.100000)"
fill="#000000" stroke="none">
<path d="M2193 2889 c-108 -14 -184 -60 -226 -136 -33 -61 -39 -99 -41 -236
l-1 -112 -100 0 c-116 0 -114 3 -105 -114 l5 -66 90 -1 c50 -1 95 -2 101 -3 7
-1 10 -159 9 -513 0 -282 1 -519 3 -525 3 -9 33 -13 103 -13 l99 0 0 528 0
528 118 0 117 -1 3 88 c1 48 -1 88 -5 88 -4 1 -57 2 -118 3 l-110 1 0 122 c0
117 1 124 25 147 39 39 111 49 208 31 l32 -6 0 90 0 89 -40 7 c-60 10 -110 11
-167 4z"/>
<path d="M2559 2875 c-1 0 -2 -384 -3 -852 l-1 -853 101 0 102 0 0 208 c0 114
1 219 1 234 1 26 16 42 141 157 24 23 47 41 50 40 3 0 57 -80 120 -177 63 -97
157 -241 208 -319 l93 -143 130 0 129 0 -260 390 c-143 214 -260 394 -260 399
0 6 6 14 14 18 8 4 41 33 73 63 33 30 108 100 168 155 60 55 116 107 125 115
9 8 35 32 58 53 23 20 39 38 35 38 -27 4 -255 4 -262 -1 -10 -6 -214 -199
-421 -398 -74 -72 -137 -129 -139 -127 -2 2 -3 228 -3 502 l0 498 -99 0 c-54
0 -100 0 -100 0z"/>
<path d="M980 2429 c-120 -12 -158 -23 -238 -63 -114 -58 -190 -169 -205 -303
l-5 -43 102 0 102 0 12 58 c24 116 121 174 292 174 190 -1 268 -54 275 -192 3
-47 0 -61 -18 -82 -37 -42 -109 -70 -212 -83 -151 -18 -326 -58 -400 -90 -128
-56 -196 -163 -197 -310 -1 -177 83 -287 252 -331 192 -49 422 3 543 121 l43
43 12 -57 c14 -65 39 -96 98 -116 44 -15 144 -11 182 7 26 13 27 17 28 91 l0
78 -40 -6 c-49 -7 -73 7 -80 50 -3 17 -6 201 -6 410 -1 334 -3 386 -19 431 -9
28 -25 59 -34 68 -9 9 -20 23 -24 30 -5 6 -24 24 -43 38 -86 63 -252 93 -420
77z m336 -751 c-3 -140 -17 -188 -78 -248 -67 -67 -152 -100 -274 -105 -121
-6 -200 25 -244 97 -20 33 -21 138 -2 175 32 59 130 113 237 128 63 9 227 35
260 41 16 3 41 11 55 18 47 25 48 24 46 -106z"/>
</g>
</svg>
